# xmcd CD database file generated by MAGIX-FreeDB-MP3_Maker_14 v2.0beta1
# 
# Track frame offsets:
#      150
#      25587
#      48222
#      70960
#      93837
#      117600
#      136565
#      158690
#      181175
#      202425
#      226295
#      246215
#      261307
#      282075
# 
# Disc length: 3983 seconds
# 
# Revision: 0 
# Processed by: cddbd v1.5.2PL0 Copyright (c) Steve Scherf et al.
# Submitted via: MAGIX-FreeDB-MP3_Maker_14 v2.0beta1
# 
DISCID=be0f8d0e
DTITLE=Liza Stansfield - Real Love
DYEAR=1900
DGENRE=
TTITLE0=Liza Stansfield - Change
TTITLE1=Liza Stansfield - Real Love
TTITLE2=Liza Stansfield - Set Your Loving Free
TTITLE3=Liza Stansfield - I Will Be Waiting
TTITLE4=Liza Stansfield - All Woman
TTITLE5=Liza Stansfield - Soul Deep
TTITLE6=Liza Stansfield - Make Love To Ya
TTITLE7=Liza Stansfield - Time To Make You Mine
TTITLE8=Liza Stansfield - Symptoms Of Loneliness and Heartache
TTITLE9=Liza Stansfield - It´s Got To Be Real
TTITLE10=Liza Stansfield - First Joy
TTITLE11=Liza Stansfield - Tenderly
TTITLE12=Liza Stansfield - A Little More Love
TTITLE13=Liza Stansfield - Bonus Track
EXTD=
EXTT0=
EXTT1=
EXTT2=
EXTT3=
EXTT4=
EXTT5=
EXTT6=
EXTT7=
EXTT8=
EXTT9=
EXTT10=
EXTT11=
EXTT12=
EXTT13=
PLAYORDER=
